# xmcd
#
# Track frame offsets:
#	150
#	13399
#	27007
#	41387
#	52332
#	67746
#	87755
#	101177
#	115349
#	137660
#	151750
#	166392
#	182186
#	203609
#	223569
#	255290
#
# Disc length: 3661 seconds
#
# Revision: 4
# Processed by: cddbd v1.5.2PL0 Copyright (c) Steve Scherf et al.
# Submitted via: EasyCDDAExtractor 12.0.1.1
#
DISCID=d30e4b10
DTITLE=Emmylou Harris - At The Ryman
DYEAR=1992
DGENRE=Country
TTITLE0=Guitar Town
TTITLE1=Half As Much
TTITLE2=Cattle Call
TTITLE3=Guess Things Happen That Way
TTITLE4=Hard Times
TTITLE5=Mansion On The Hill
TTITLE6=Scotland
TTITLE7=Montana Cowgirl
TTITLE8=Like Strangers
TTITLE9=Lodi
TTITLE10=Calling My Children Home
TTITLE11=If I Could Be There
TTITLE12=Walls Of Time
TTITLE13=Get Up John
TTITLE14=It's A Hard Life Wherever You Go/Abraham, Martin And John
TTITLE15=Smoke Along The Track
EXTD=
EXTT0=
EXTT1=
EXTT2=
EXTT3=
EXTT4=
EXTT5=
EXTT6=
EXTT7=
EXTT8=
EXTT9=
EXTT10=
EXTT11=
EXTT12=
EXTT13=
EXTT14=
EXTT15=
PLAYORDER=
